<svg width="194" height="40" viewBox="0 0 194 40" fill="none" xmlns="http://www.w3.org/2000/svg">
<path d="M191.229 39.1969C189.39 39.1634 187.752 38.7452 186.314 37.9422C184.876 37.1057 183.756 35.9681 182.954 34.5294C182.152 33.0572 181.75 31.401 181.75 29.5607V4.56706C181.75 4.09864 181.884 3.73059 182.152 3.46292C182.452 3.16179 182.82 3.01123 183.255 3.01123C183.723 3.01123 184.091 3.16179 184.358 3.46292C184.659 3.73059 184.81 4.09864 184.81 4.56706V29.5607C184.81 31.5014 185.411 33.0906 186.615 34.3286C187.819 35.5331 189.373 36.1354 191.279 36.1354H192.382C192.851 36.1354 193.218 36.286 193.486 36.5871C193.787 36.8548 193.937 37.2228 193.937 37.6912C193.937 38.1262 193.787 38.4942 193.486 38.7954C193.218 39.063 192.851 39.1969 192.382 39.1969H191.229ZM177.838 15.4579C177.437 15.4579 177.103 15.3408 176.835 15.1066C176.601 14.8389 176.484 14.5043 176.484 14.1028C176.484 13.7013 176.601 13.3834 176.835 13.1492C177.103 12.8816 177.437 12.7477 177.838 12.7477H191.43C191.831 12.7477 192.148 12.8816 192.382 13.1492C192.65 13.3834 192.784 13.7013 192.784 14.1028C192.784 14.5043 192.65 14.8389 192.382 15.1066C192.148 15.3408 191.831 15.4579 191.43 15.4579H177.838Z" fill="white"/>
<path d="M161.503 39.498C158.829 39.498 156.421 38.8958 154.282 37.6913C152.175 36.4533 150.503 34.7803 149.266 32.6724C148.063 30.5311 147.461 28.1388 147.461 25.4955C147.461 22.8188 148.063 20.4265 149.266 18.3186C150.503 16.1773 152.175 14.5043 154.282 13.2998C156.421 12.0619 158.829 11.4429 161.503 11.4429C164.178 11.4429 166.569 12.0619 168.675 13.2998C170.781 14.5043 172.436 16.1773 173.64 18.3186C174.877 20.4265 175.496 22.8188 175.496 25.4955L174.242 27.5031C174.242 29.7783 173.674 31.8192 172.537 33.626C171.433 35.4328 169.929 36.8715 168.023 37.9422C166.117 38.9794 163.944 39.498 161.503 39.498ZM161.503 36.6875C163.61 36.6875 165.482 36.2023 167.12 35.232C168.792 34.2283 170.096 32.8899 171.032 31.217C172.002 29.5106 172.487 27.6034 172.487 25.4955C172.487 23.3542 172.002 21.447 171.032 19.7741C170.096 18.0677 168.792 16.7294 167.12 15.7591C165.482 14.7553 163.61 14.2534 161.503 14.2534C159.43 14.2534 157.558 14.7553 155.886 15.7591C154.215 16.7294 152.894 18.0677 151.924 19.7741C150.955 21.447 150.47 23.3542 150.47 25.4955C150.47 27.6034 150.955 29.5106 151.924 31.217C152.894 32.8899 154.215 34.2283 155.886 35.232C157.558 36.2023 159.43 36.6875 161.503 36.6875ZM173.991 39.1969C173.556 39.1969 173.189 39.0631 172.888 38.7954C172.62 38.4943 172.487 38.1262 172.487 37.6913V28.5068L173.439 25.4955H175.496V37.6913C175.496 38.1262 175.362 38.4943 175.094 38.7954C174.827 39.0631 174.459 39.1969 173.991 39.1969Z" fill="white"/>
<path d="M119.735 27.1518C119.3 27.1518 118.933 27.0179 118.632 26.7503C118.364 26.4491 118.23 26.0811 118.23 25.6461V1.50564C118.23 1.03722 118.364 0.669173 118.632 0.401503C118.933 0.133834 119.3 0 119.735 0C120.203 0 120.571 0.133834 120.838 0.401503C121.106 0.669173 121.24 1.03722 121.24 1.50564V25.6461C121.24 26.0811 121.106 26.4491 120.838 26.7503C120.571 27.0179 120.203 27.1518 119.735 27.1518ZM141.952 39.1969C141.518 39.1969 141.15 39.0631 140.849 38.7954C140.581 38.4943 140.448 38.1262 140.448 37.6913V24.1907C140.448 21.9824 140.013 20.1589 139.144 18.7202C138.308 17.2814 137.154 16.2108 135.683 15.5081C134.246 14.772 132.607 14.404 130.768 14.404C128.963 14.404 127.341 14.7553 125.904 15.4579C124.466 16.1271 123.329 17.064 122.493 18.2685C121.657 19.473 121.24 20.8281 121.24 22.3337H118.732C118.866 20.2593 119.484 18.4023 120.588 16.7628C121.691 15.0899 123.129 13.785 124.901 12.8482C126.673 11.8779 128.629 11.3927 130.768 11.3927C133.176 11.3927 135.332 11.8946 137.238 12.8983C139.177 13.8686 140.698 15.3074 141.802 17.2145C142.905 19.0882 143.457 21.4136 143.457 24.1907V37.6913C143.457 38.1262 143.306 38.4943 143.005 38.7954C142.738 39.0631 142.387 39.1969 141.952 39.1969ZM119.735 39.1969C119.3 39.1969 118.933 39.0631 118.632 38.7954C118.364 38.4943 118.23 38.1262 118.23 37.6913V13.2497C118.23 12.7812 118.364 12.4132 118.632 12.1455C118.933 11.8779 119.3 11.744 119.735 11.744C120.203 11.744 120.571 11.8779 120.838 12.1455C121.106 12.4132 121.24 12.7812 121.24 13.2497V37.6913C121.24 38.1262 121.106 38.4943 120.838 38.7954C120.571 39.0631 120.203 39.1969 119.735 39.1969Z" fill="white"/>
<path d="M103.649 39.4981C101.041 39.4981 98.7008 38.8791 96.6278 37.6412C94.5883 36.4032 92.9668 34.7303 91.7631 32.6224C90.5929 30.5145 90.0078 28.1389 90.0078 25.4957C90.0078 22.819 90.5595 20.4267 91.6628 18.3187C92.7662 16.2108 94.2874 14.5546 96.2266 13.3501C98.1658 12.1122 100.389 11.4932 102.897 11.4932C105.037 11.4932 106.992 11.9114 108.765 12.7479C110.537 13.5509 112.075 14.7889 113.378 16.4618C113.646 16.7964 113.746 17.1477 113.679 17.5157C113.613 17.8838 113.395 18.1849 113.027 18.4191C112.726 18.6533 112.392 18.7537 112.024 18.7203C111.657 18.6533 111.339 18.4526 111.071 18.118C108.932 15.5751 106.207 14.3037 102.897 14.3037C100.924 14.3037 99.1856 14.7889 97.681 15.7592C96.2099 16.7295 95.0564 18.0511 94.2205 19.724C93.4181 21.397 93.0169 23.3208 93.0169 25.4957C93.0169 27.6036 93.4683 29.5107 94.371 31.2171C95.2737 32.89 96.5108 34.2284 98.0822 35.2321C99.6871 36.2024 101.543 36.6876 103.649 36.6876C105.02 36.6876 106.307 36.4868 107.511 36.0853C108.748 35.6838 109.818 35.0649 110.72 34.2284C111.021 33.9607 111.356 33.8102 111.723 33.7767C112.091 33.7432 112.409 33.8603 112.676 34.128C113.011 34.4291 113.178 34.7805 113.178 35.182C113.211 35.55 113.078 35.8679 112.777 36.1355C110.336 38.3773 107.293 39.4981 103.649 39.4981Z" fill="white"/>
<path d="M84.9835 40.0002C84.248 40.0002 83.6294 39.7492 83.1279 39.2473C82.6598 38.7789 82.4258 38.1767 82.4258 37.4406C82.4258 36.7045 82.6765 36.1022 83.1781 35.6338C83.6796 35.1654 84.2814 34.9312 84.9835 34.9312C85.6856 34.9312 86.2707 35.1821 86.7388 35.684C87.2403 36.1524 87.4911 36.7379 87.4911 37.4406C87.4911 38.1432 87.2403 38.7454 86.7388 39.2473C86.2707 39.7492 85.6856 40.0002 84.9835 40.0002Z" fill="white"/>
<path d="M75.8962 39.1972C75.4615 39.1972 75.0938 39.0634 74.7929 38.7957C74.5254 38.4946 74.3916 38.1265 74.3916 37.6916V13.25C74.3916 12.7815 74.5254 12.4135 74.7929 12.1458C75.0938 11.8781 75.4615 11.7443 75.8962 11.7443C76.3643 11.7443 76.732 11.8781 76.9995 12.1458C77.267 12.4135 77.4007 12.7815 77.4007 13.25V37.6916C77.4007 38.1265 77.267 38.4946 76.9995 38.7957C76.732 39.0634 76.3643 39.1972 75.8962 39.1972ZM75.846 5.97267C75.2108 5.97267 74.6591 5.75519 74.191 5.32023C73.7564 4.85181 73.5391 4.28301 73.5391 3.61383C73.5391 2.84428 73.7731 2.27548 74.2412 1.90743C74.7427 1.50593 75.2944 1.30518 75.8962 1.30518C76.4646 1.30518 76.9828 1.50593 77.4509 1.90743C77.9524 2.27548 78.2032 2.84428 78.2032 3.61383C78.2032 4.28301 77.9691 4.85181 77.501 5.32023C77.0664 5.75519 76.5147 5.97267 75.846 5.97267Z" fill="#49E374"/>
<path d="M54.894 39.498C52.2193 39.498 49.812 38.8958 47.6722 37.6913C45.5658 36.4533 43.8941 34.7803 42.657 32.6724C41.4534 30.5311 40.8516 28.1388 40.8516 25.4955C40.8516 22.8188 41.4534 20.4265 42.657 18.3186C43.8941 16.1773 45.5658 14.5043 47.6722 13.2998C49.812 12.0619 52.2193 11.4429 54.894 11.4429C57.5688 11.4429 59.9593 12.0619 62.0657 13.2998C64.1721 14.5043 65.8271 16.1773 67.0307 18.3186C68.2678 20.4265 68.8863 22.8188 68.8863 25.4955L67.6325 27.5031C67.6325 29.7783 67.0641 31.8192 65.9274 33.626C64.824 35.4328 63.3195 36.8715 61.4137 37.9422C59.508 38.9794 57.3347 39.498 54.894 39.498ZM54.894 36.6875C57.0004 36.6875 58.8727 36.2023 60.511 35.232C62.1827 34.2283 63.4867 32.8899 64.4228 31.217C65.3924 29.5106 65.8772 27.6034 65.8772 25.4955C65.8772 23.3542 65.3924 21.447 64.4228 19.7741C63.4867 18.0677 62.1827 16.7294 60.511 15.7591C58.8727 14.7553 57.0004 14.2534 54.894 14.2534C52.8211 14.2534 50.9488 14.7553 49.277 15.7591C47.6053 16.7294 46.2847 18.0677 45.3151 19.7741C44.3455 21.447 43.8607 23.3542 43.8607 25.4955C43.8607 27.6034 44.3455 29.5106 45.3151 31.217C46.2847 32.8899 47.6053 34.2283 49.277 35.232C50.9488 36.2023 52.8211 36.6875 54.894 36.6875ZM67.3818 39.1969C66.9471 39.1969 66.5793 39.0631 66.2784 38.7954C66.011 38.4943 65.8772 38.1262 65.8772 37.6913V28.5068L66.8301 25.4955H68.8863V37.6913C68.8863 38.1262 68.7526 38.4943 68.4851 38.7954C68.2176 39.0631 67.8499 39.1969 67.3818 39.1969Z" fill="#49E374"/>
<path d="M36.3735 39.1969C34.5346 39.1634 32.8963 38.7452 31.4586 37.9422C30.0209 37.1057 28.9009 35.9681 28.0985 34.5294C27.296 33.0572 26.8948 31.401 26.8948 29.5607V4.56706C26.8948 4.09864 27.0286 3.73059 27.296 3.46292C27.597 3.16179 27.9647 3.01123 28.3994 3.01123C28.8675 3.01123 29.2352 3.16179 29.5027 3.46292C29.8036 3.73059 29.9541 4.09864 29.9541 4.56706V29.5607C29.9541 31.5014 30.5559 33.0906 31.7595 34.3286C32.9632 35.5331 34.5179 36.1354 36.4236 36.1354H37.527C37.9951 36.1354 38.3628 36.286 38.6303 36.5871C38.9312 36.8548 39.0817 37.2228 39.0817 37.6912C39.0817 38.1262 38.9312 38.4942 38.6303 38.7954C38.3628 39.063 37.9951 39.1969 37.527 39.1969H36.3735ZM22.983 15.4579C22.5818 15.4579 22.2474 15.3408 21.98 15.1066C21.7459 14.8389 21.6289 14.5043 21.6289 14.1028C21.6289 13.7013 21.7459 13.3834 21.98 13.1492C22.2474 12.8816 22.5818 12.7477 22.983 12.7477H36.5741C36.9753 12.7477 37.2929 12.8816 37.527 13.1492C37.7945 13.3834 37.9282 13.7013 37.9282 14.1028C37.9282 14.5043 37.7945 14.8389 37.527 15.1066C37.2929 15.3408 36.9753 15.4579 36.5741 15.4579H22.983Z" fill="white"/>
<path d="M10.5876 39.498C8.84898 39.498 7.0268 39.1802 5.12104 38.5445C3.21528 37.9087 1.62714 36.8381 0.356634 35.3324C0.0891584 34.9978 -0.0278621 34.6465 0.00557242 34.2785C0.0724411 33.877 0.289765 33.5424 0.657544 33.2747C0.991888 33.0405 1.34295 32.9568 1.71073 33.0238C2.11194 33.0907 2.42957 33.2747 2.66361 33.5758C3.63321 34.7134 4.80341 35.5164 6.17422 35.9849C7.57847 36.4198 9.09973 36.6373 10.738 36.6373C13.5465 36.6373 15.5359 36.1354 16.7061 35.1317C17.8763 34.1279 18.4614 32.9568 18.4614 31.6185C18.4614 30.3136 17.8261 29.2429 16.5556 28.4065C15.3185 27.5365 13.3961 26.9175 10.7882 26.5495C7.44473 26.0811 4.97058 25.1777 3.36573 23.8393C1.76088 22.501 0.958453 20.9452 0.958453 19.1718C0.958453 17.4989 1.37638 16.0936 2.21224 14.956C3.0481 13.785 4.18487 12.9151 5.62255 12.3463C7.09367 11.744 8.76539 11.4429 10.6377 11.4429C12.9113 11.4429 14.8337 11.8611 16.4052 12.6976C17.9766 13.5006 19.2471 14.588 20.2167 15.9598C20.4842 16.2944 20.5677 16.6624 20.4674 17.0639C20.4006 17.432 20.1498 17.7331 19.7152 17.9673C19.3808 18.1346 19.0298 18.1848 18.662 18.1179C18.2942 18.051 17.9766 17.8502 17.7091 17.5156C16.8732 16.445 15.8535 15.6419 14.6498 15.1066C13.4796 14.5378 12.1088 14.2534 10.5374 14.2534C8.43105 14.2534 6.79276 14.7051 5.62255 15.6085C4.45235 16.5119 3.86725 17.5993 3.86725 18.8707C3.86725 19.7406 4.10129 20.5102 4.56937 21.1794C5.07089 21.8151 5.87331 22.3672 6.97665 22.8356C8.07998 23.2705 9.5511 23.6219 11.39 23.8895C13.8976 24.2241 15.8702 24.7929 17.3079 25.5959C18.779 26.3989 19.8155 27.3358 20.4173 28.4065C21.0525 29.4437 21.3702 30.5645 21.3702 31.7691C21.3702 33.3416 20.8686 34.7134 19.8656 35.8845C18.8626 37.0555 17.5419 37.9589 15.9036 38.5946C14.2654 39.1969 12.4933 39.498 10.5876 39.498Z" fill="white"/>
</svg>
